<svg xmlns="http://www.w3.org/2000/svg" xmlns:xlink="http://www.w3.org/1999/xlink" width="1500" zoomAndPan="magnify" viewBox="0 0 1125 1124.99995" height="1500" preserveAspectRatio="xMidYMid meet" version="1.0"><defs><clipPath id="d59e1f67d3"><path d="M 211.632812 211.632812 L 452 211.632812 L 452 452 L 211.632812 452 Z M 211.632812 211.632812 " clip-rule="nonzero"/></clipPath><clipPath id="d363b9d0ec"><path d="M 673 211.632812 L 913.632812 211.632812 L 913.632812 452 L 673 452 Z M 673 211.632812 " clip-rule="nonzero"/></clipPath><clipPath id="6c616dcf5a"><path d="M 673 673 L 913.632812 673 L 913.632812 913.632812 L 673 913.632812 Z M 673 673 " clip-rule="nonzero"/></clipPath><clipPath id="5302bbe6e1"><path d="M 211.632812 673 L 452 673 L 452 913.632812 L 211.632812 913.632812 Z M 211.632812 673 " clip-rule="nonzero"/></clipPath></defs><g clip-path="url(#d59e1f67d3)"><path fill="#000000" d="M 242.59375 451.933594 L 211.632812 451.933594 L 211.632812 211.632812 L 451.933594 211.632812 L 451.933594 242.59375 L 242.59375 242.59375 Z M 242.59375 451.933594 " fill-opacity="1" fill-rule="nonzero"/></g><g clip-path="url(#d363b9d0ec)"><path fill="#000000" d="M 913.363281 451.933594 L 882.40625 451.933594 L 882.40625 242.59375 L 673.066406 242.59375 L 673.066406 211.632812 L 913.363281 211.632812 Z M 913.363281 451.933594 " fill-opacity="1" fill-rule="nonzero"/></g><g clip-path="url(#6c616dcf5a)"><path fill="#000000" d="M 913.363281 913.363281 L 673.066406 913.363281 L 673.066406 882.40625 L 882.40625 882.40625 L 882.40625 673.066406 L 913.363281 673.066406 Z M 913.363281 913.363281 " fill-opacity="1" fill-rule="nonzero"/></g><g clip-path="url(#5302bbe6e1)"><path fill="#000000" d="M 451.933594 913.363281 L 211.632812 913.363281 L 211.632812 673.066406 L 242.59375 673.066406 L 242.59375 882.40625 L 451.933594 882.40625 Z M 451.933594 913.363281 " fill-opacity="1" fill-rule="nonzero"/></g></svg>