<svg xmlns="http://www.w3.org/2000/svg" xmlns:xlink="http://www.w3.org/1999/xlink" width="1500" zoomAndPan="magnify" viewBox="0 0 1125 1124.99995" height="1500" preserveAspectRatio="xMidYMid meet" version="1.0"><defs><clipPath id="af974c5b66"><path d="M 504 917 L 571 917 L 571 1021.648438 L 504 1021.648438 Z M 504 917 " clip-rule="nonzero"/></clipPath><clipPath id="3e24ad61f6"><path d="M 752 252.148438 L 882 252.148438 L 882 271 L 752 271 Z M 752 252.148438 " clip-rule="nonzero"/></clipPath></defs><path fill="#000000" d="M 302.898438 941.582031 C 300.21875 938.917969 297.355469 937.132812 294.304688 936.226562 L 294.757812 936.347656 C 289.128906 935.039062 284.632812 935 281.269531 936.222656 L 281.304688 936.210938 C 277.839844 937.488281 275.703125 938.820312 274.898438 940.207031 C 274.777344 940.417969 274.644531 940.621094 274.503906 940.816406 C 272.605469 943.480469 271.746094 946.523438 271.929688 949.941406 L 271.925781 949.878906 C 272.113281 952.921875 274.203125 955.984375 278.1875 959.066406 L 278.191406 959.066406 C 280.171875 960.597656 283.5 962.65625 288.175781 965.234375 L 287.640625 964.964844 C 299.824219 970.511719 306.929688 973.90625 308.949219 975.152344 C 310.03125 975.816406 310.890625 976.578125 311.53125 977.4375 L 309.160156 975.339844 C 313.945312 978.070312 317.589844 980.6875 320.097656 983.195312 L 319.972656 983.074219 C 322.867188 985.839844 324.730469 988.835938 325.5625 992.0625 C 326.113281 994.203125 326.191406 996.359375 325.796875 998.535156 C 325.320312 1001.183594 324.15625 1003.734375 322.3125 1006.1875 L 322.300781 1006.199219 C 316.191406 1014.285156 304.75 1018.789062 287.980469 1019.710938 C 287.8125 1019.71875 287.644531 1019.722656 287.476562 1019.722656 C 275.867188 1019.601562 264.667969 1015.269531 253.878906 1006.726562 C 250.523438 1004.070312 249.953125 999.195312 252.613281 995.835938 C 255.273438 992.480469 260.148438 991.914062 263.507812 994.570312 C 271.523438 1000.917969 279.566406 1004.132812 287.636719 1004.214844 L 287.128906 1004.226562 C 299.109375 1003.566406 306.710938 1001.109375 309.929688 996.847656 L 309.921875 996.859375 C 310.289062 996.371094 310.496094 996.011719 310.535156 995.78125 L 310.535156 995.777344 C 310.527344 995.828125 310.527344 995.878906 310.542969 995.929688 C 310.445312 995.558594 310.015625 995.011719 309.253906 994.28125 L 309.132812 994.160156 C 307.605469 992.632812 305.050781 990.851562 301.472656 988.808594 C 300.542969 988.277344 299.734375 987.5625 299.097656 986.707031 C 299.640625 987.433594 300.210938 987.984375 300.816406 988.355469 C 299.34375 987.449219 292.808594 984.355469 281.214844 979.078125 C 281.03125 978.996094 280.855469 978.90625 280.679688 978.808594 C 275.304688 975.84375 271.3125 973.351562 268.703125 971.332031 C 261.007812 965.386719 256.921875 958.550781 256.445312 950.832031 L 256.441406 950.769531 C 256.066406 943.742188 257.878906 937.421875 261.878906 931.8125 L 261.484375 932.421875 C 264.160156 927.816406 268.976562 924.230469 275.933594 921.664062 L 275.96875 921.648438 C 282.214844 919.378906 289.648438 919.242188 298.265625 921.242188 C 298.417969 921.277344 298.566406 921.320312 298.71875 921.363281 C 304.265625 923.011719 309.304688 926.082031 313.832031 930.582031 C 316.871094 933.601562 316.886719 938.511719 313.867188 941.546875 C 310.847656 944.585938 305.9375 944.601562 302.898438 941.582031 Z M 302.898438 941.582031 " fill-opacity="1" fill-rule="nonzero"/><path fill="#000000" d="M 400.054688 938.039062 C 387.203125 932.277344 376.613281 931.738281 368.277344 936.429688 L 369.144531 935.863281 C 357.925781 944.320312 351.53125 955.828125 349.96875 970.386719 L 349.996094 970.046875 C 349.105469 984.234375 352.429688 993.621094 359.972656 998.210938 L 358.675781 997.578125 C 370.347656 1001.96875 381.988281 1001.332031 393.597656 995.667969 C 397.445312 993.792969 402.085938 995.390625 403.964844 999.238281 C 405.84375 1003.085938 404.246094 1007.726562 400.394531 1009.605469 C 384.785156 1017.21875 369.058594 1018.046875 353.214844 1012.089844 C 352.761719 1011.917969 352.328125 1011.707031 351.914062 1011.457031 C 339.03125 1003.621094 333.234375 989.492188 334.519531 969.070312 C 334.523438 968.957031 334.535156 968.84375 334.546875 968.730469 C 336.589844 949.71875 345.011719 934.636719 359.804688 923.480469 C 360.082031 923.273438 360.371094 923.082031 360.671875 922.914062 C 373.550781 915.667969 388.792969 915.996094 406.402344 923.890625 C 410.308594 925.640625 412.058594 930.230469 410.304688 934.136719 C 408.550781 938.042969 403.964844 939.792969 400.054688 938.039062 Z M 400.054688 938.039062 " fill-opacity="1" fill-rule="nonzero"/><path fill="#000000" d="M 413.253906 1006.257812 C 420.691406 987.539062 429.835938 960.578125 440.6875 925.378906 C 440.714844 925.292969 440.742188 925.203125 440.773438 925.117188 C 442.320312 920.671875 445.480469 918.21875 450.257812 917.761719 C 451.484375 917.644531 452.722656 917.820312 453.867188 918.273438 C 455.015625 918.734375 456.125 919.398438 457.195312 920.277344 C 461.828125 924.078125 467.757812 934.828125 474.984375 952.53125 L 474.96875 952.492188 C 478.542969 961.113281 483.851562 979.589844 490.902344 1007.914062 C 491.9375 1012.070312 489.40625 1016.277344 485.25 1017.308594 C 481.09375 1018.34375 476.886719 1015.8125 475.851562 1011.660156 C 468.988281 984.082031 463.917969 966.339844 460.640625 958.433594 L 460.625 958.394531 C 454.386719 943.113281 449.964844 934.40625 447.359375 932.265625 L 447.355469 932.265625 C 447.527344 932.40625 447.785156 932.542969 448.128906 932.679688 L 451.738281 933.195312 C 453.5625 933.019531 454.792969 932.027344 455.421875 930.210938 L 455.507812 929.949219 C 444.535156 965.539062 435.257812 992.882812 427.667969 1011.984375 C 426.085938 1015.964844 421.578125 1017.90625 417.597656 1016.328125 C 413.617188 1014.746094 411.671875 1010.238281 413.253906 1006.257812 Z M 413.253906 1006.257812 " fill-opacity="1" fill-rule="nonzero"/><path fill="#000000" d="M 441.210938 968 C 443.738281 967.972656 445.804688 967.882812 447.414062 967.730469 L 447.417969 967.730469 C 447.851562 967.691406 447.871094 967.691406 447.480469 967.726562 L 447.492188 967.726562 C 456.394531 966.90625 462.375 966.324219 465.433594 965.976562 L 465.652344 965.953125 L 468.421875 965.714844 C 472.691406 965.351562 476.445312 968.511719 476.8125 972.777344 C 477.175781 977.046875 474.015625 980.800781 469.746094 981.164062 L 466.976562 981.402344 L 467.195312 981.382812 C 464.03125 981.742188 457.933594 982.335938 448.910156 983.167969 L 448.925781 983.164062 C 448.492188 983.207031 448.46875 983.207031 448.859375 983.171875 L 448.863281 983.171875 C 446.832031 983.363281 444.335938 983.472656 441.378906 983.503906 C 437.097656 983.550781 433.585938 980.117188 433.539062 975.835938 C 433.496094 971.554688 436.929688 968.046875 441.210938 968 Z M 441.210938 968 " fill-opacity="1" fill-rule="nonzero"/><g clip-path="url(#af974c5b66)"><path fill="#000000" d="M 504.929688 1014.714844 L 504.929688 1014.71875 C 504.90625 1014.589844 504.886719 1014.453125 504.867188 1014.316406 C 504.492188 1011.644531 504.5625 1005.027344 505.082031 994.460938 L 505.09375 994.261719 C 506.703125 972.761719 507.492188 958.171875 507.460938 950.492188 C 507.460938 950.320312 507.464844 950.144531 507.476562 949.976562 C 507.890625 943.367188 508.382812 936.6875 508.957031 929.925781 L 508.964844 929.84375 C 509.140625 927.976562 509.410156 926.421875 509.769531 925.179688 C 509.894531 924.746094 510.03125 924.335938 510.183594 923.953125 L 510.207031 923.894531 C 512.265625 918.785156 515.824219 917.25 520.878906 919.289062 C 522.425781 919.910156 523.808594 921.011719 525.023438 922.59375 C 525.597656 923.339844 526.207031 924.28125 526.851562 925.417969 L 526.96875 925.628906 C 534.273438 939.457031 545.875 962.757812 561.773438 995.535156 L 561.824219 995.640625 C 562.113281 996.253906 562.335938 996.667969 562.492188 996.882812 C 561.085938 994.972656 558.957031 994.449219 556.105469 995.316406 C 557.171875 994.992188 558.296875 994.902344 559.402344 995.050781 C 555.46875 994.519531 553.160156 995.886719 552.484375 999.15625 C 552.488281 999.132812 552.496094 999.097656 552.5 999.042969 C 552.546875 998.71875 552.570312 998.269531 552.574219 997.699219 L 552.578125 997.480469 C 552.945312 986.550781 553.113281 975.671875 553.089844 964.839844 C 553.089844 964.675781 553.09375 964.511719 553.105469 964.347656 C 554.210938 946.367188 554.757812 933.179688 554.738281 924.777344 C 554.730469 920.496094 558.195312 917.019531 562.480469 917.007812 C 566.761719 917 570.242188 920.464844 570.25 924.746094 C 570.265625 933.476562 569.710938 946.992188 568.585938 965.300781 L 568.597656 964.804688 C 568.625 975.824219 568.449219 986.886719 568.078125 998 L 568.082031 997.777344 C 568.074219 999.019531 568.003906 1000.132812 567.871094 1001.125 C 567.816406 1001.535156 567.75 1001.929688 567.667969 1002.304688 C 566.390625 1008.476562 562.941406 1011.179688 557.320312 1010.417969 L 560.617188 1010.152344 C 556.472656 1011.414062 552.933594 1010.054688 550.003906 1006.078125 C 549.238281 1005.035156 548.492188 1003.742188 547.769531 1002.195312 L 547.820312 1002.300781 C 531.996094 969.683594 520.472656 946.539062 513.253906 932.867188 L 513.367188 933.078125 C 513.078125 932.566406 512.863281 932.222656 512.726562 932.042969 C 513.230469 932.699219 514.011719 933.238281 515.078125 933.667969 C 519.613281 935.496094 522.785156 934.171875 524.589844 929.695312 L 524.613281 929.640625 C 524.640625 929.566406 524.660156 929.511719 524.671875 929.472656 C 524.578125 929.792969 524.488281 930.410156 524.402344 931.320312 L 524.410156 931.234375 C 523.847656 937.878906 523.363281 944.449219 522.957031 950.945312 L 522.972656 950.429688 C 523.003906 958.515625 522.199219 973.515625 520.558594 995.421875 L 520.574219 995.222656 C 520.101562 1004.8125 519.984375 1010.457031 520.226562 1012.164062 C 520.222656 1012.15625 520.222656 1012.144531 520.21875 1012.128906 C 520.933594 1016.351562 518.089844 1020.355469 513.867188 1021.066406 C 509.644531 1021.78125 505.640625 1018.9375 504.929688 1014.714844 Z M 504.929688 1014.714844 " fill-opacity="1" fill-rule="nonzero"/></g><path fill="#000000" d="M 675.109375 1009.785156 C 674.46875 1004.132812 674.289062 994.566406 674.574219 981.089844 L 674.582031 980.859375 C 675.480469 963.210938 675.960938 944.632812 676.027344 925.136719 L 676.03125 924.90625 C 676.109375 922.625 676.304688 920.792969 676.617188 919.402344 L 676.617188 919.40625 C 677.765625 914.34375 680.632812 911.859375 685.21875 911.949219 L 678.65625 915.339844 C 681.734375 910.820312 685.597656 910.140625 690.242188 913.300781 C 690.914062 913.757812 691.570312 914.328125 692.210938 915.015625 C 694.421875 917.378906 697.890625 923.050781 702.625 932.035156 L 702.597656 931.980469 C 708.636719 943.226562 715.152344 957.457031 722.136719 974.675781 L 722.078125 974.53125 C 722.113281 974.613281 722.140625 974.671875 722.15625 974.707031 C 720.59375 971.695312 717.910156 970.828125 714.113281 972.113281 C 717.050781 971.121094 720.296875 971.976562 722.367188 974.28125 C 719.160156 970.707031 715.816406 970.476562 712.339844 973.59375 C 712.0625 973.84375 711.855469 974.0625 711.726562 974.253906 C 712.316406 973.382812 713.285156 971.113281 714.628906 967.441406 C 714.679688 967.304688 714.734375 967.164062 714.792969 967.03125 C 716.726562 962.550781 722.085938 946.339844 730.863281 918.40625 C 731 917.964844 731.179688 917.539062 731.390625 917.132812 C 734.554688 911.097656 738.929688 909.546875 744.523438 912.476562 L 744.519531 912.476562 C 745.429688 912.949219 746.285156 913.574219 747.085938 914.34375 C 747.203125 914.457031 747.316406 914.574219 747.425781 914.691406 C 748.050781 915.375 748.617188 916.183594 749.121094 917.128906 L 749.121094 917.125 C 750.230469 919.195312 751.363281 922.636719 752.519531 927.449219 C 752.574219 927.683594 752.621094 927.917969 752.652344 928.15625 L 756.964844 958.214844 L 756.667969 956.929688 C 756.792969 957.316406 756.902344 957.746094 756.996094 958.210938 L 756.996094 958.214844 C 757.703125 961.765625 758.726562 977.410156 760.066406 1005.148438 C 760.273438 1009.425781 756.972656 1013.058594 752.695312 1013.265625 C 748.417969 1013.472656 744.78125 1010.171875 744.574219 1005.894531 C 743.273438 978.925781 742.34375 964.042969 741.785156 961.246094 C 741.808594 961.363281 741.851562 961.515625 741.910156 961.695312 C 741.777344 961.28125 741.675781 960.851562 741.613281 960.414062 L 737.300781 930.359375 L 737.4375 931.066406 C 736.59375 927.550781 735.933594 925.347656 735.457031 924.457031 C 735.566406 924.660156 735.746094 924.902344 736.003906 925.179688 L 736.34375 925.527344 C 736.601562 925.777344 736.929688 926.003906 737.324219 926.210938 C 740.890625 928.078125 743.492188 927.453125 745.128906 924.328125 L 745.660156 923.054688 C 736.71875 951.5 731.175781 968.207031 729.03125 973.179688 L 729.195312 972.765625 C 727.410156 977.640625 725.863281 981.042969 724.550781 982.976562 C 723.96875 983.828125 723.351562 984.546875 722.691406 985.140625 C 718.472656 988.921875 714.511719 988.753906 710.820312 984.632812 L 719.074219 986.804688 C 714.472656 988.355469 710.914062 986.707031 708.394531 981.851562 C 708.199219 981.480469 708.011719 981.078125 707.824219 980.648438 L 707.765625 980.503906 C 700.988281 963.800781 694.710938 950.074219 688.933594 939.316406 L 688.90625 939.261719 C 684.816406 931.503906 682.140625 926.953125 680.882812 925.605469 C 681.027344 925.757812 681.238281 925.933594 681.523438 926.125 L 681.519531 926.121094 C 685.421875 928.773438 688.742188 928.089844 691.480469 924.0625 C 690.007812 926.226562 687.539062 927.503906 684.917969 927.453125 C 688.753906 927.527344 691.03125 925.988281 691.746094 922.832031 C 691.648438 923.261719 691.578125 924.125 691.535156 925.417969 L 691.539062 925.1875 C 691.46875 944.933594 690.980469 963.753906 690.070312 981.648438 L 690.078125 981.417969 C 689.808594 994.199219 689.957031 1003.074219 690.519531 1008.039062 C 691 1012.292969 687.941406 1016.132812 683.6875 1016.617188 C 679.429688 1017.097656 675.589844 1014.039062 675.109375 1009.785156 Z M 675.109375 1009.785156 " fill-opacity="1" fill-rule="nonzero"/><path fill="#000000" d="M 824.164062 921.953125 L 793.839844 923.28125 L 794.175781 923.257812 C 794.035156 923.269531 793.9375 923.285156 793.878906 923.304688 C 794.132812 923.226562 794.328125 923.066406 794.46875 922.828125 L 794.472656 922.824219 C 794.113281 923.4375 793.867188 924.089844 793.734375 924.78125 L 793.710938 924.898438 C 792.550781 930.546875 791.796875 935.164062 791.453125 938.75 L 791.472656 938.464844 C 790.6875 951.898438 790.207031 965.695312 790.042969 979.855469 L 790.039062 979.5625 C 790.265625 988.230469 790.546875 993.839844 790.882812 996.390625 L 790.886719 996.417969 C 790.941406 996.839844 791 997.136719 791.058594 997.304688 C 790.707031 996.3125 789.84375 995.539062 788.464844 994.988281 C 788.574219 995.035156 788.683594 995.078125 788.789062 995.128906 L 788.789062 995.125 C 788.449219 994.972656 788.164062 994.875 787.9375 994.832031 C 791.226562 995.441406 803.199219 994.371094 823.855469 991.625 C 828.101562 991.058594 832.003906 994.042969 832.566406 998.285156 C 833.132812 1002.53125 830.148438 1006.429688 825.902344 1006.996094 C 803.617188 1009.960938 790.019531 1010.988281 785.113281 1010.078125 C 784.105469 1009.894531 783.195312 1009.617188 782.386719 1009.25 L 782.710938 1009.390625 C 779.726562 1008.195312 777.628906 1005.878906 776.421875 1002.441406 C 776.003906 1001.246094 775.699219 999.898438 775.503906 998.394531 L 775.507812 998.421875 C 775.097656 995.332031 774.773438 989.179688 774.535156 979.964844 C 774.53125 979.867188 774.53125 979.769531 774.53125 979.671875 C 774.703125 965.269531 775.1875 951.230469 775.992188 937.554688 C 775.996094 937.457031 776.003906 937.363281 776.015625 937.265625 C 776.410156 933.128906 777.246094 927.964844 778.519531 921.773438 L 778.5 921.890625 C 778.960938 919.449219 779.824219 917.152344 781.082031 915 L 781.085938 914.992188 C 782.957031 911.796875 785.664062 909.636719 789.207031 908.519531 C 790.347656 908.160156 791.558594 907.921875 792.828125 907.8125 C 792.941406 907.800781 793.050781 907.792969 793.164062 907.789062 L 823.484375 906.460938 C 827.761719 906.273438 831.382812 909.589844 831.570312 913.867188 C 831.757812 918.144531 828.441406 921.765625 824.164062 921.953125 Z M 824.164062 921.953125 " fill-opacity="1" fill-rule="nonzero"/><path fill="#000000" d="M 785.648438 951.089844 C 786.820312 951.085938 788.621094 950.941406 791.042969 950.660156 L 791.027344 950.660156 C 791.703125 950.578125 792.453125 950.476562 793.265625 950.347656 L 793.132812 950.371094 C 798.117188 949.5 801.574219 948.941406 803.5 948.695312 L 803.476562 948.695312 C 804.304688 948.589844 805.105469 948.492188 805.886719 948.402344 L 806.011719 948.390625 C 809.007812 948.105469 811.816406 947.808594 814.4375 947.5 L 814.546875 947.484375 C 816.335938 947.300781 818.160156 947.15625 820.027344 947.050781 L 820.457031 947.039062 L 820.460938 947.039062 L 820.203125 947.042969 C 821.273438 947.007812 822.5625 947.019531 824.078125 947.070312 C 828.359375 947.226562 831.703125 950.816406 831.550781 955.097656 C 831.398438 959.375 827.804688 962.722656 823.523438 962.570312 C 822.363281 962.527344 821.429688 962.519531 820.722656 962.542969 L 820.460938 962.546875 L 820.457031 962.546875 L 820.890625 962.535156 C 819.269531 962.625 817.6875 962.75 816.148438 962.910156 L 816.261719 962.898438 C 813.539062 963.21875 810.609375 963.53125 807.480469 963.828125 L 807.601562 963.816406 C 806.914062 963.890625 806.210938 963.976562 805.492188 964.070312 L 805.472656 964.074219 C 803.777344 964.292969 800.554688 964.816406 795.800781 965.644531 L 795.667969 965.667969 C 794.664062 965.824219 793.726562 965.957031 792.859375 966.058594 L 792.839844 966.058594 C 789.839844 966.410156 787.46875 966.589844 785.71875 966.597656 C 781.433594 966.617188 777.945312 963.160156 777.929688 958.878906 C 777.910156 954.597656 781.367188 951.109375 785.648438 951.089844 Z M 785.648438 951.089844 " fill-opacity="1" fill-rule="nonzero"/><path fill="#000000" d="M 901.21875 942.953125 C 992.605469 915.320312 1043.011719 858.683594 1052.433594 773.039062 C 1058.785156 726.082031 1052.230469 677.730469 1032.765625 627.996094 C 1024.949219 608.976562 1011.914062 587.089844 993.667969 562.335938 C 987.261719 553.492188 980.53125 545 973.476562 536.863281 L 939.023438 499.652344 C 1001.246094 546.414062 1043.207031 588.234375 1064.902344 625.105469 C 1088.015625 664.988281 1098.152344 708.992188 1095.320312 757.113281 C 1085.105469 903.75 1019.910156 986.078125 899.742188 1004.097656 Z M 901.21875 942.953125 " fill-opacity="1" fill-rule="nonzero"/><path fill="#000000" d="M 982.445312 468.527344 L 982.027344 468.527344 C 954.085938 470.058594 937.257812 470.902344 931.550781 471.054688 C 900.964844 470.984375 883.613281 471.101562 879.503906 471.410156 C 871.292969 471.714844 867.230469 472.585938 867.304688 474.023438 C 866.644531 474.699219 867.164062 476.382812 868.855469 479.070312 C 886.523438 502.417969 905.1875 528.515625 924.855469 557.363281 C 929.039062 563.050781 931.953125 565.894531 933.597656 565.898438 C 934.097656 565.917969 934.585938 565.640625 935.0625 565.066406 C 935.6875 564.03125 935.949219 563.003906 935.847656 561.996094 C 936.070312 562.722656 936.542969 562.113281 937.265625 560.171875 C 940.101562 544.796875 942.054688 535.289062 943.113281 531.648438 C 945.476562 523.660156 947.914062 517.308594 950.425781 512.597656 C 952.503906 508.527344 955.660156 504.359375 959.898438 500.09375 L 984.253906 479.285156 L 985.996094 477.234375 C 988.046875 474.605469 988.910156 472.175781 988.578125 469.945312 C 988.585938 469.144531 986.539062 468.671875 982.445312 468.527344 Z M 982.445312 468.527344 " fill-opacity="1" fill-rule="nonzero"/><path fill="#000000" d="M 247.761719 271.207031 L 256.558594 380.003906 C 256.902344 384.269531 253.722656 388.011719 249.453125 388.355469 C 245.183594 388.699219 241.441406 385.519531 241.097656 381.253906 L 232.300781 272.457031 C 231.957031 268.1875 235.136719 264.449219 239.40625 264.101562 C 243.675781 263.757812 247.414062 266.9375 247.761719 271.207031 Z M 247.761719 271.207031 " fill-opacity="1" fill-rule="nonzero"/><path fill="#000000" d="M 243.699219 262.453125 L 352.585938 254.472656 C 356.855469 254.160156 360.574219 257.367188 360.886719 261.636719 C 361.199219 265.910156 357.992188 269.625 353.71875 269.9375 L 244.832031 277.917969 C 240.5625 278.230469 236.84375 275.023438 236.53125 270.75 C 236.21875 266.480469 239.425781 262.765625 243.699219 262.453125 Z M 243.699219 262.453125 " fill-opacity="1" fill-rule="nonzero"/><path fill="#000000" d="M 259.039062 747.382812 L 258.976562 857.976562 C 258.972656 862.257812 255.5 865.726562 251.21875 865.722656 C 246.933594 865.722656 243.464844 862.246094 243.46875 857.964844 L 243.527344 747.375 C 243.53125 743.09375 247.003906 739.625 251.289062 739.628906 C 255.570312 739.628906 259.039062 743.101562 259.039062 747.382812 Z M 259.039062 747.382812 " fill-opacity="1" fill-rule="nonzero"/><path fill="#000000" d="M 254.230469 849.601562 L 374.359375 852.972656 C 378.640625 853.09375 382.011719 856.660156 381.890625 860.941406 C 381.769531 865.222656 378.203125 868.59375 373.921875 868.472656 L 253.796875 865.101562 C 249.515625 864.980469 246.140625 861.414062 246.261719 857.132812 C 246.382812 852.855469 249.949219 849.480469 254.230469 849.601562 Z M 254.230469 849.601562 " fill-opacity="1" fill-rule="nonzero"/><path fill="#000000" d="M 768.195312 846.101562 L 883.660156 842.359375 C 887.941406 842.21875 891.523438 845.574219 891.660156 849.855469 C 891.800781 854.136719 888.441406 857.71875 884.164062 857.855469 L 768.699219 861.597656 C 764.417969 861.738281 760.835938 858.382812 760.695312 854.101562 C 760.558594 849.820312 763.914062 846.238281 768.195312 846.101562 Z M 768.195312 846.101562 " fill-opacity="1" fill-rule="nonzero"/><path fill="#000000" d="M 890.113281 751.136719 L 892.769531 843.984375 C 892.890625 848.261719 889.519531 851.832031 885.238281 851.953125 C 880.957031 852.078125 877.386719 848.707031 877.265625 844.425781 L 874.609375 751.582031 C 874.488281 747.300781 877.859375 743.734375 882.140625 743.609375 C 886.417969 743.488281 889.988281 746.859375 890.113281 751.136719 Z M 890.113281 751.136719 " fill-opacity="1" fill-rule="nonzero"/><g clip-path="url(#3e24ad61f6)"><path fill="#000000" d="M 759.757812 255.472656 L 873.136719 252.359375 C 877.417969 252.242188 880.984375 255.617188 881.101562 259.898438 C 881.21875 264.175781 877.84375 267.742188 873.5625 267.859375 L 760.183594 270.972656 C 755.902344 271.089844 752.335938 267.714844 752.21875 263.433594 C 752.101562 259.15625 755.476562 255.589844 759.757812 255.472656 Z M 759.757812 255.472656 " fill-opacity="1" fill-rule="nonzero"/></g><path fill="#000000" d="M 883.171875 263.367188 L 885.246094 368.226562 C 885.332031 372.507812 881.929688 376.046875 877.644531 376.128906 C 873.363281 376.214844 869.824219 372.8125 869.738281 368.53125 L 867.664062 263.671875 C 867.578125 259.390625 870.984375 255.851562 875.265625 255.769531 C 879.546875 255.683594 883.085938 259.085938 883.171875 263.367188 Z M 883.171875 263.367188 " fill-opacity="1" fill-rule="nonzero"/></svg>