<svg xmlns="http://www.w3.org/2000/svg" xmlns:xlink="http://www.w3.org/1999/xlink" width="1500" zoomAndPan="magnify" viewBox="0 0 1125 1124.99995" height="1500" preserveAspectRatio="xMidYMid meet" version="1.0"><defs><clipPath id="f616dbeb6f"><path d="M 202 200 L 915.730469 200 L 915.730469 920.261719 L 202 920.261719 Z M 202 200 " clip-rule="nonzero"/></clipPath><clipPath id="62dcc18fb0"><path d="M 140.230469 147.761719 L 305 147.761719 L 305 292 L 140.230469 292 Z M 140.230469 147.761719 " clip-rule="nonzero"/></clipPath></defs><g clip-path="url(#f616dbeb6f)"><path fill="#000000" d="M 915.347656 901.707031 C 907.984375 807.910156 907.71875 713.929688 908.6875 619.902344 C 912.484375 486.359375 906.796875 352.621094 910.492188 219.296875 C 911.914062 210.054688 911.558594 197.742188 898.890625 200.839844 C 876.0625 205.777344 852.578125 205.863281 829.316406 206.507812 C 671.335938 207.210938 513.140625 212.214844 355.402344 201.28125 C 348.378906 200.9375 341.273438 201.339844 334.261719 201.992188 C 324.609375 202.878906 325.972656 214.601562 335.707031 213.925781 C 348.0625 214.128906 360.425781 214.171875 372.773438 214.59375 C 543.042969 224.058594 722.820312 222.652344 893.132812 214.699219 C 899.496094 213.136719 897.878906 219.542969 897.824219 223.542969 C 895.382812 337.164062 899.234375 451.027344 896.925781 564.789062 C 896.945312 677.152344 893.769531 789.617188 902.921875 901.730469 C 903.21875 907.171875 902.371094 907.90625 896.949219 907.808594 C 798.347656 905.722656 699.667969 907.15625 601.054688 904.339844 C 476.9375 902.785156 352.859375 906.382812 228.769531 907.507812 C 220.152344 907.460938 219.800781 906.953125 219.417969 898.621094 C 217.761719 796.152344 215.78125 693.671875 215.246094 591.191406 C 213.558594 506.5625 219.53125 421.300781 214.554688 336.957031 C 208.070312 328.691406 203.148438 336.320312 203.800781 343.816406 C 203.488281 379.855469 203.253906 415.894531 202.945312 451.9375 C 201.332031 603.5625 205.621094 755.148438 207.375 906.730469 C 208.277344 916.667969 210.601562 919.121094 220.480469 919.523438 C 334.308594 919.265625 448.15625 916.738281 561.988281 915.671875 C 561.988281 916.117188 561.992188 916.5625 561.996094 917.003906 C 676.867188 918.121094 791.863281 917.601562 906.65625 920.257812 C 916.316406 919.503906 915.984375 909.089844 915.34375 901.703125 Z M 915.347656 901.707031 " fill-opacity="1" fill-rule="nonzero"/></g><g clip-path="url(#62dcc18fb0)"><path fill="#000000" d="M 225.195312 281.15625 C 256.144531 253.773438 300.191406 222.789062 304.101562 178.667969 C 305.257812 144.117188 265.058594 139.796875 244.214844 159.433594 C 236.859375 165.960938 229.902344 173.011719 223.34375 180.355469 C 216.457031 188.066406 216.761719 188.324219 210.953125 179.867188 C 186.167969 138.347656 130.007812 153.246094 141.996094 203.921875 C 150.894531 234.964844 175.449219 258.515625 193.21875 284.742188 C 202.058594 297.617188 215.835938 288.632812 225.199219 281.15625 Z M 225.195312 281.15625 " fill-opacity="1" fill-rule="nonzero"/></g><path fill="#000000" d="M 251.355469 864.9375 C 250.761719 886.050781 274.402344 879.230469 288.320312 880.714844 C 346.589844 883.996094 404.835938 882.238281 463.128906 880.382812 C 467.433594 880.5 473.636719 879.535156 473.351562 873.933594 C 472.753906 866.445312 463.742188 868.390625 458.433594 868.136719 C 395.558594 870.714844 332.714844 871.121094 269.855469 867.925781 C 259.398438 868.714844 264.570312 854.472656 263.515625 847.910156 C 265.3125 782.535156 262.976562 717.230469 260.457031 651.925781 C 260.054688 646.984375 261.054688 638.222656 253.738281 638.847656 C 241.296875 636.515625 253.886719 740.128906 251.269531 742.207031 C 251.390625 794.828125 251.054688 823.976562 251.355469 864.9375 Z M 251.355469 864.9375 " fill-opacity="1" fill-rule="nonzero"/><path fill="#000000" d="M 853.59375 245.519531 C 826.074219 245.835938 798.492188 246.6875 771.003906 246.238281 C 764.023438 245.628906 762.851562 256.199219 769.5 257.390625 C 797.484375 262.285156 826.992188 255.46875 854.652344 259.777344 C 853.433594 323.5625 861.070312 387.378906 856.417969 451.085938 C 856.964844 457.246094 851.914062 468.671875 859.832031 471.152344 C 878.199219 473.394531 866.847656 366.863281 868.824219 350.144531 C 868.414062 350.144531 868 350.152344 867.585938 350.15625 C 867.585938 327.578125 867.570312 304.992188 867.59375 282.414062 C 866.109375 269.414062 874.699219 243.488281 853.59375 245.519531 Z M 853.59375 245.519531 " fill-opacity="1" fill-rule="nonzero"/><path fill="#000000" d="M 732.527344 239.855469 C 718.164062 238.796875 715.128906 261.816406 730.046875 262.753906 C 743.734375 263.339844 748.238281 240.65625 732.527344 239.855469 Z M 732.527344 239.855469 " fill-opacity="1" fill-rule="nonzero"/><path fill="#000000" d="M 647.875 242.148438 C 633.207031 242.609375 635.089844 264.273438 649.21875 263.953125 C 664.625 264.003906 662.609375 241.246094 647.875 242.148438 Z M 647.875 242.148438 " fill-opacity="1" fill-rule="nonzero"/><path fill="#000000" d="M 688.675781 242.59375 C 674.382812 241.785156 672.738281 263.527344 687.257812 264.410156 C 702.324219 265.722656 703.832031 243.257812 688.675781 242.59375 Z M 688.675781 242.59375 " fill-opacity="1" fill-rule="nonzero"/></svg>